<svg width="32" height="32" viewBox="0 0 32 32" xmlns="http://www.w3.org/2000/svg">
  <!-- Background -->
  <rect width="32" height="32" fill="#ffffff"/>
  
  <!-- Heart (top left) -->
  <path d="M8 24s-4-2.7-4-5.7C4 16 6 15 8 18c2-3 4-2 4 0.3C12 21.3 8 24 8 24z" fill="#e63946"/>
  
  <!-- Spade (top right) -->
  <path d="M24 16c0-2 2-3 4-0.3C30 15 32 16 32 18.3C32 21.3 28 24 28 24s-4-2.7-4-5.7z" fill="#000000"/>
  <rect x="27" y="20" width="2" height="4" fill="#000000"/>
  
  <!-- Diamond (bottom left) -->
  <polygon points="16,4 20,12 16,20 12,12" fill="#e63946"/>
  
  <!-- Club (bottom right) -->
  <circle cx="28" cy="12" r="2" fill="#000000"/>
  <circle cx="25" cy="14" r="1.5" fill="#000000"/>
  <circle cx="31" cy="14" r="1.5" fill="#000000"/>
  <rect x="27" y="14" width="2" height="4" fill="#000000"/>
</svg> 